{
  "accessors": [
    {
      "bufferView": 2,
      "componentType": 5126,
      "count": 9,
      "max": [
        12.225372314453125,
        10.404701232910156,
        15.494535446166992
      ],
      "min": [
        -12.225341796875,
        8.29882526397705,
        1.7326639890670776
      ],
      "type": "VEC3"
    },
    {
      "bufferView": 2,
      "byteOffset": 108,
      "componentType": 5126,
      "count": 9,
      "max": [
        9.99999883788405e-07,
        -0.9884938597679138,
        0.15126098692417145
      ],
      "min": [
        9.99999883788405e-07,
        -0.9884938597679138,
        0.15126098692417145
      ],
      "type": "VEC3"
    },
    {
      "bufferView": 1,
      "componentType": 5126,
      "count": 9,
      "max": [
        0.9853519797325134,
        0.5651810169219971
      ],
      "min": [
        0.01464799977838993,
        0.01464799977838993
      ],
      "type": "VEC2"
    },
    {
      "bufferView": 0,
      "componentType": 5125,
      "count": 24,
      "type": "SCALAR"
    },
    {
      "bufferView": 2,
      "byteOffset": 216,
      "componentType": 5126,
      "count": 49,
      "max": [
        0.17864899337291718,
        10.250823974609375,
        16.09055519104004
      ],
      "min": [
        -0.1786479949951172,
        10.190916061401367,
        15.7373685836792
      ],
      "type": "VEC3"
    },
    {
      "bufferView": 2,
      "byteOffset": 804,
      "componentType": 5126,
      "count": 49,
      "max": [
        0.7529987096786499,
        -0.5365338921546936,
        0.8438788056373596
      ],
      "min": [
        -0.75295490026474,
        -0.9898437857627869,
        -0.6447719931602478
      ],
      "type": "VEC3"
    },
    {
      "bufferView": 1,
      "byteOffset": 72,
      "componentType": 5126,
      "count": 49,
      "max": [
        1.3745399713516235,
        -0.16588400304317474
      ],
      "min": [
        0.6658949851989746,
        -0.8745319843292236
      ],
      "type": "VEC2"
    },
    {
      "bufferView": 0,
      "byteOffset": 96,
      "componentType": 5125,
      "count": 252,
      "type": "SCALAR"
    },
    {
      "bufferView": 2,
      "byteOffset": 1392,
      "componentType": 5126,
      "count": 9440,
      "max": [
        12.622913360595703,
        7.984847068786621,
        1.1315460205078125
      ],
      "min": [
        -12.587653160095215,
        -8.024276733398438,
        0.2895190119743347
      ],
      "type": "VEC3"
    },
    {
      "bufferView": 2,
      "byteOffset": 114672,
      "componentType": 5126,
      "count": 9440,
      "max": [
        1.0,
        1.0,
        1.0
      ],
      "min": [
        -1.0,
        -1.0,
        -1.0
      ],
      "type": "VEC3"
    },
    {
      "bufferView": 1,
      "byteOffset": 464,
      "componentType": 5126,
      "count": 9440,
      "max": [
        1.972085952758789,
        1.0
      ],
      "min": [
        0.0,
        0.014702999964356422
      ],
      "type": "VEC2"
    },
    {
      "bufferView": 0,
      "byteOffset": 1104,
      "componentType": 5125,
      "count": 48528,
      "type": "SCALAR"
    },
    {
      "bufferView": 2,
      "byteOffset": 227952,
      "componentType": 5126,
      "count": 4903,
      "max": [
        12.579639434814453,
        10.656206130981445,
        16.337284088134766
      ],
      "min": [
        -12.559784889221191,
        -8.016834259033203,
        -3.999999989900971e-06
      ],
      "type": "VEC3"
    },
    {
      "bufferView": 2,
      "byteOffset": 286788,
      "componentType": 5126,
      "count": 4903,
      "max": [
        1.0,
        1.0,
        1.0
      ],
      "min": [
        -1.0,
        -1.0,
        -1.0
      ],
      "type": "VEC3"
    },
    {
      "bufferView": 1,
      "byteOffset": 75984,
      "componentType": 5126,
      "count": 4903,
      "max": [
        0.995212972164154,
        0.6570379734039307
      ],
      "min": [
        0.014674000442028046,
        0.01450399961322546
      ],
      "type": "VEC2"
    },
    {
      "bufferView": 0,
      "byteOffset": 195216,
      "componentType": 5125,
      "count": 24930,
      "type": "SCALAR"
    }
  ],
  "asset": {
    "extras": {
      "author": "gohean33 (https://sketchfab.com/gohean33)",
      "license": "CC-BY-4.0 (http://creativecommons.org/licenses/by/4.0/)",
      "source": "https://sketchfab.com/3d-models/notebook-345a7ec44d9c42afb388384b342858e6",
      "title": "notebook"
    },
    "generator": "Sketchfab-14.32.1",
    "version": "2.0"
  },
  "bufferViews": [
    {
      "buffer": 0,
      "byteLength": 294936,
      "name": "floatBufferViews",
      "target": 34963
    },
    {
      "buffer": 0,
      "byteLength": 115208,
      "byteOffset": 294936,
      "byteStride": 8,
      "name": "floatBufferViews",
      "target": 34962
    },
    {
      "buffer": 0,
      "byteLength": 345624,
      "byteOffset": 410144,
      "byteStride": 12,
      "name": "floatBufferViews",
      "target": 34962
    }
  ],
  "buffers": [
    {
      "byteLength": 755768,
      "uri": "scene.bin"
    }
  ],
  "extensionsUsed": [
    "KHR_materials_clearcoat"
  ],
  "images": [
    {
      "uri": "textures/rsMaterial104204SG_baseColor.jpeg"
    },
    {
      "uri": "textures/rsMaterial104204SG_metallicRoughness.png"
    },
    {
      "uri": "textures/rsMaterial104205SG1_baseColor.jpeg"
    }
  ],
  "materials": [
    {
      "doubleSided": true,
      "name": "rsMaterial104204SG",
      "pbrMetallicRoughness": {
        "baseColorFactor": [
          0.5714565488998818,
          0.5714565488998818,
          0.5714565488998818,
          1.0
        ],
        "baseColorTexture": {
          "index": 0
        },
        "metallicRoughnessTexture": {
          "index": 1
        },
        "roughnessFactor": 0.19694063773541692
      }
    },
    {
      "doubleSided": true,
      "name": "rsMaterial104205SG",
      "pbrMetallicRoughness": {
        "baseColorFactor": [
          0.0,
          0.0,
          0.0,
          1.0
        ],
        "metallicFactor": 0.0,
        "roughnessFactor": 0.6
      }
    },
    {
      "doubleSided": true,
      "extensions": {
        "KHR_materials_clearcoat": {
          "clearcoatFactor": 1.0,
          "clearcoatRoughnessFactor": 0.04
        }
      },
      "name": "rsMaterial104205SG1",
      "pbrMetallicRoughness": {
        "baseColorTexture": {
          "index": 2
        },
        "metallicFactor": 0.6628787120701587,
        "roughnessFactor": 0.09942366368712163
      }
    }
  ],
  "meshes": [
    {
      "name": "Object_0",
      "primitives": [
        {
          "attributes": {
            "NORMAL": 1,
            "POSITION": 0,
            "TEXCOORD_0": 2
          },
          "indices": 3,
          "material": 2,
          "mode": 4
        }
      ]
    },
    {
      "name": "Object_1",
      "primitives": [
        {
          "attributes": {
            "NORMAL": 5,
            "POSITION": 4,
            "TEXCOORD_0": 6
          },
          "indices": 7,
          "material": 1,
          "mode": 4
        }
      ]
    },
    {
      "name": "Object_2",
      "primitives": [
        {
          "attributes": {
            "NORMAL": 9,
            "POSITION": 8,
            "TEXCOORD_0": 10
          },
          "indices": 11,
          "material": 0,
          "mode": 4
        }
      ]
    },
    {
      "name": "Object_3",
      "primitives": [
        {
          "attributes": {
            "NORMAL": 13,
            "POSITION": 12,
            "TEXCOORD_0": 14
          },
          "indices": 15,
          "material": 0,
          "mode": 4
        }
      ]
    }
  ],
  "nodes": [
    {
      "children": [
        1
      ],
      "matrix": [
        1.0,
        0.0,
        0.0,
        0.0,
        0.0,
        2.220446049250313e-16,
        -1.0,
        0.0,
        0.0,
        1.0,
        2.220446049250313e-16,
        0.0,
        0.0,
        0.0,
        0.0,
        1.0
      ],
      "name": "Sketchfab_model"
    },
    {
      "children": [
        2,
        3,
        4,
        5
      ],
      "name": "notebook.obj.cleaner.materialmerger.gles"
    },
    {
      "mesh": 0,
      "name": "Object_2"
    },
    {
      "mesh": 1,
      "name": "Object_3"
    },
    {
      "mesh": 2,
      "name": "Object_4"
    },
    {
      "mesh": 3,
      "name": "Object_5"
    }
  ],
  "samplers": [
    {
      "magFilter": 9729,
      "minFilter": 9987,
      "wrapS": 10497,
      "wrapT": 10497
    }
  ],
  "scene": 0,
  "scenes": [
    {
      "name": "Sketchfab_Scene",
      "nodes": [
        0
      ]
    }
  ],
  "textures": [
    {
      "sampler": 0,
      "source": 0
    },
    {
      "sampler": 0,
      "source": 1
    },
    {
      "sampler": 0,
      "source": 2
    }
  ]
}
